<?xml version="1.0" standalone="no"?>
<!DOCTYPE svg PUBLIC "-//W3C//DTD SVG 20010904//EN"
 "http://www.w3.org/TR/2001/REC-SVG-20010904/DTD/svg10.dtd">
<svg version="1.0" xmlns="http://www.w3.org/2000/svg"
 width="500.000000pt" height="500.000000pt" viewBox="0 0 500.000000 500.000000"
 preserveAspectRatio="xMidYMid meet">
<metadata>
Created by potrace 1.11, written by Peter Selinger 2001-2013
</metadata>
<g transform="translate(0.000000,500.000000) scale(0.100000,-0.100000)"
fill="#000000" stroke="none">
<path d="M2215 4984 c-128 -16 -291 -48 -380 -74 -38 -12 -78 -23 -88 -25 -48
-11 -205 -74 -322 -130 -141 -67 -277 -147 -395 -233 -251 -183 -503 -455
-660 -712 -137 -224 -259 -527 -313 -780 -42 -191 -52 -298 -52 -535 0 -169 9
-313 20 -348 2 -7 6 -31 9 -54 6 -47 8 -55 36 -178 76 -331 243 -674 469 -965
91 -118 316 -340 438 -433 322 -245 723 -421 1098 -481 17 -2 66 -10 110 -17
105 -17 523 -17 630 0 44 7 94 14 110 17 54 9 259 56 310 72 287 90 593 253
835 447 84 67 271 249 340 330 52 61 176 231 195 268 11 20 23 37 27 37 5 0 8
4 8 9 0 5 19 42 43 83 127 217 240 541 288 828 31 187 33 564 4 750 -77 485
-259 886 -574 1265 -30 36 -244 250 -286 285 -280 237 -646 425 -1004 515
-100 25 -124 29 -231 45 -36 6 -78 13 -95 16 -65 12 -472 11 -570 -2z m491
-1150 c50 -7 103 -18 118 -24 14 -5 26 -7 26 -5 0 2 39 -9 88 -26 101 -36 251
-108 298 -144 18 -14 37 -25 42 -25 6 0 12 -3 14 -7 2 -5 29 -28 61 -52 83
-63 207 -198 271 -295 106 -158 163 -292 207 -481 23 -104 34 -350 18 -455
-13 -93 -59 -269 -81 -313 -10 -20 -16 -37 -14 -37 10 0 -88 -177 -138 -250
-50 -74 -210 -243 -274 -290 -19 -14 -39 -30 -45 -35 -16 -14 -110 -71 -172
-105 -114 -62 -273 -112 -424 -135 -84 -13 -349 -13 -401 -1 -14 3 -41 9 -60
12 -19 3 -48 10 -65 15 -273 79 -447 179 -625 358 -258 259 -389 565 -396 926
-4 220 28 383 113 578 30 69 92 183 115 212 4 6 34 44 66 85 190 244 499 431
802 485 19 4 53 10 75 14 69 12 286 10 381 -5z"/>
</g>
</svg>
